<svg width="24" height="24" viewBox="0 0 24 24" fill="none" xmlns="http://www.w3.org/2000/svg">
<path d="M14.9966 20.9949V12.9968C14.9966 12.7317 14.8913 12.4774 14.7038 12.2899C14.5163 12.1024 14.262 11.9971 13.9968 11.9971H9.9978C9.73265 11.9971 9.47836 12.1024 9.29087 12.2899C9.10338 12.4774 8.99805 12.7317 8.99805 12.9968V20.9949" stroke="#D4AF37" stroke-width="1.99952" stroke-linecap="round" stroke-linejoin="round"/>
<path d="M2.99902 9.99756C2.99895 9.7067 3.06234 9.41933 3.18477 9.15548C3.30719 8.89164 3.4857 8.65769 3.70785 8.46993L10.7062 2.47139C11.0671 2.16637 11.5243 1.99902 11.9968 1.99902C12.4694 1.99902 12.9266 2.16637 13.2875 2.47139L20.2858 8.46993C20.508 8.65769 20.6865 8.89164 20.8089 9.15548C20.9313 9.41933 20.9947 9.7067 20.9947 9.99756V18.9954C20.9947 19.5257 20.784 20.0343 20.409 20.4093C20.034 20.7842 19.5254 20.9949 18.9951 20.9949H4.99854C4.46823 20.9949 3.95965 20.7842 3.58467 20.4093C3.20969 20.0343 2.99902 19.5257 2.99902 18.9954V9.99756Z" stroke="#D4AF37" stroke-width="1.99952" stroke-linecap="round" stroke-linejoin="round"/>
</svg>
