<svg width="24" height="24" viewBox="0 0 24 24" fill="none" xmlns="http://www.w3.org/2000/svg">
<path d="M19.9951 9.99757C19.9951 14.9894 14.4575 20.1881 12.5979 21.7937C12.4247 21.924 12.2138 21.9944 11.9971 21.9944C11.7803 21.9944 11.5695 21.924 11.3962 21.7937C9.53668 20.1881 3.99902 14.9894 3.99902 9.99757C3.99902 7.87635 4.84167 5.84202 6.3416 4.34209C7.84153 2.84216 9.87587 1.99951 11.9971 1.99951C14.1183 1.99951 16.1526 2.84216 17.6526 4.34209C19.1525 5.84202 19.9951 7.87635 19.9951 9.99757Z" stroke="#D4AF37" stroke-width="1.99952" stroke-linecap="round" stroke-linejoin="round"/>
<path d="M11.9973 12.9968C13.6538 12.9968 14.9966 11.654 14.9966 9.99756C14.9966 8.34111 13.6538 6.99829 11.9973 6.99829C10.3409 6.99829 8.99805 8.34111 8.99805 9.99756C8.99805 11.654 10.3409 12.9968 11.9973 12.9968Z" stroke="#D4AF37" stroke-width="1.99952" stroke-linecap="round" stroke-linejoin="round"/>
</svg>
