<svg width="48" height="48" viewBox="0 0 48 48" fill="none" xmlns="http://www.w3.org/2000/svg">
<path d="M37.9995 21.9995H9.99994C7.79084 21.9995 6 23.7903 6 25.9995V39.9993C6 42.2084 7.79084 43.9992 9.99994 43.9992H37.9995C40.2087 43.9992 41.9995 42.2084 41.9995 39.9993V25.9995C41.9995 23.7903 40.2087 21.9995 37.9995 21.9995Z" stroke="#1A1A1A" stroke-width="3.99994" stroke-linecap="round" stroke-linejoin="round"/>
<path d="M14 21.9997V13.9999C14 11.3477 15.0536 8.80423 16.9289 6.92889C18.8042 5.05355 21.3477 4 23.9999 4C26.652 4 29.1955 5.05355 31.0708 6.92889C32.9462 8.80423 33.9997 11.3477 33.9997 13.9999V21.9997" stroke="#1A1A1A" stroke-width="3.99994" stroke-linecap="round" stroke-linejoin="round"/>
</svg>
