<svg width="24" height="24" viewBox="0 0 24 24" fill="none" xmlns="http://www.w3.org/2000/svg">
<path d="M11.0143 2.81339C11.0571 2.58405 11.1788 2.37691 11.3583 2.22785C11.5378 2.07879 11.7637 1.99719 11.997 1.99719C12.2303 1.99719 12.4563 2.07879 12.6358 2.22785C12.8153 2.37691 12.937 2.58405 12.9798 2.81339L14.0305 8.37004C14.1052 8.76509 14.2972 9.12848 14.5814 9.41276C14.8657 9.69704 15.2291 9.88903 15.6242 9.96366L21.1808 11.0144C21.4102 11.0572 21.6173 11.1789 21.7664 11.3584C21.9154 11.5379 21.997 11.7639 21.997 11.9972C21.997 12.2305 21.9154 12.4564 21.7664 12.6359C21.6173 12.8154 21.4102 12.9371 21.1808 12.9799L15.6242 14.0307C15.2291 14.1053 14.8657 14.2973 14.5814 14.5816C14.2972 14.8659 14.1052 15.2292 14.0305 15.6243L12.9798 21.1809C12.937 21.4103 12.8153 21.6174 12.6358 21.7665C12.4563 21.9155 12.2303 21.9971 11.997 21.9971C11.7637 21.9971 11.5378 21.9155 11.3583 21.7665C11.1788 21.6174 11.0571 21.4103 11.0143 21.1809L9.96353 15.6243C9.88891 15.2292 9.69692 14.8659 9.41264 14.5816C9.12835 14.2973 8.76497 14.1053 8.36992 14.0307L2.81327 12.9799C2.58393 12.9371 2.37679 12.8154 2.22773 12.6359C2.07867 12.4564 1.99707 12.2305 1.99707 11.9972C1.99707 11.7639 2.07867 11.5379 2.22773 11.3584C2.37679 11.1789 2.58393 11.0572 2.81327 11.0144L8.36992 9.96366C8.76497 9.88903 9.12835 9.69704 9.41264 9.41276C9.69692 9.12848 9.88891 8.76509 9.96353 8.37004L11.0143 2.81339Z" stroke="#99A1AF" stroke-width="1.99952" stroke-linecap="round" stroke-linejoin="round"/>
<path d="M19.9951 1.99951V5.99951" stroke="#99A1AF" stroke-width="1.99952" stroke-linecap="round" stroke-linejoin="round"/>
<path d="M21.9961 3.99902H17.9961" stroke="#99A1AF" stroke-width="1.99952" stroke-linecap="round" stroke-linejoin="round"/>
<path d="M4 21.9956C5.10457 21.9956 6 21.1002 6 19.9956C6 18.891 5.10457 17.9956 4 17.9956C2.89543 17.9956 2 18.891 2 19.9956C2 21.1002 2.89543 21.9956 4 21.9956Z" stroke="#99A1AF" stroke-width="1.99952" stroke-linecap="round" stroke-linejoin="round"/>
</svg>
